# xmcd
#
# Track frame offsets:
#	150
#	14859
#	29080
#	41620
#	53130
#	71348
#	84513
#	97279
#	113696
#	134079
#	145928
#	159614
#	178757
#	191068
#	212662
#	226370
#	242345
#	255207
#	270422
#	285772
#
# Disc length: 4041 seconds
#
# Revision: 5
# Processed by: cddbd v1.5.1PL2 Copyright (c) Steve Scherf et al.
# Submitted via: EasyCDDAExtractor 9.0.0.1
#
DISCID=1f0fc714
DTITLE=Merle Haggard - Down Every Road Cd 4
DYEAR=1996
DGENRE=Country
TTITLE0=If We're Not Back In Love By Monday
TTITLE1=Ramblin' Fever
TTITLE2=It's Been A Great Afternoon
TTITLE3=Red Bandana
TTITLE4=Footlights
TTITLE5=My Own Kind Of Hat
TTITLE6=Misery And Gin
TTITLE7=Leonard
TTITLE8=I Think I'll Just Stay Here And Drink
TTITLE9=Rainbow Stew
TTITLE10=Big City
TTITLE11=Are The Good Times Really Over (I Wish A Buck Was Still Silver)
TTITLE12=You Take Me For Granted
TTITLE13=Pancho And Lefty
TTITLE14=That's The Way Love Goes
TTITLE15=Someday When Things Are Good
TTITLE16=Let's Chase Each Other Around The Room
TTITLE17=Kern River
TTITLE18=Twinkle, Twinkle Lucky Star
TTITLE19=In My Next Life
EXTD=YEAR: 1996
EXTT0=
EXTT1=
EXTT2=
EXTT3=
EXTT4=
EXTT5=
EXTT6=
EXTT7=
EXTT8=
EXTT9=
EXTT10=
EXTT11=
EXTT12=
EXTT13=
EXTT14=
EXTT15=
EXTT16=
EXTT17=
EXTT18=
EXTT19=
PLAYORDER=
